<?xml version="1.0" standalone="no"?>
<!DOCTYPE svg PUBLIC "-//W3C//DTD SVG 20010904//EN"
 "http://www.w3.org/TR/2001/REC-SVG-20010904/DTD/svg10.dtd">
<svg version="1.0" xmlns="http://www.w3.org/2000/svg"
 width="200.000000pt" height="200.000000pt" viewBox="0 0 200.000000 200.000000"
 preserveAspectRatio="xMidYMid meet">
<metadata>
Created by potrace 1.11, written by Peter Selinger 2001-2013
</metadata>
<g transform="translate(0.000000,200.000000) scale(0.100000,-0.100000)"
fill="#000000" stroke="none">
<path d="M0 1000 l0 -1000 1000 0 1000 0 0 1000 0 1000 -1000 0 -1000 0 0
-1000z m1900 0 l0 -900 -900 0 -900 0 0 900 0 900 900 0 900 0 0 -900z"/>
<path d="M337 1682 c-18 -4 -9 -20 107 -198 162 -247 196 -305 190 -317 -4 -7
-79 -123 -166 -259 -87 -136 -158 -249 -158 -252 0 -3 51 -6 113 -6 l113 0 46
78 c26 42 74 125 108 185 34 59 65 105 69 103 4 -3 56 -86 117 -185 l109 -180
113 -1 c61 0 112 3 112 6 0 3 -15 29 -33 57 -19 29 -65 100 -103 160 -38 59
-97 150 -130 201 l-61 94 158 253 c114 184 154 255 144 259 -12 4 -122 5 -196
1 -9 -1 -21 -11 -27 -23 -7 -13 -20 -36 -30 -53 -9 -16 -35 -59 -56 -95 -56
-93 -77 -131 -93 -162 -8 -16 -16 -28 -18 -28 -2 0 -21 30 -42 66 -21 36 -43
74 -48 83 -6 9 -37 60 -69 114 -32 53 -64 97 -70 98 -40 3 -185 3 -199 1z"/>
<path d="M1243 673 l1 -344 60 3 61 3 1 105 c1 58 2 110 3 115 0 6 30 10 68 9
111 -2 186 35 226 109 17 33 22 59 22 122 0 92 -17 127 -81 174 -54 39 -80 44
-230 46 l-131 2 0 -344z m243 222 c66 -12 100 -90 67 -155 -23 -45 -54 -60
-128 -60 l-60 0 0 103 c0 56 3 107 7 113 7 10 54 10 114 -1z"/>
</g>
</svg>
